<?xml version="1.0" encoding="UTF-8" standalone="no"?><!DOCTYPE svg PUBLIC "-//W3C//DTD SVG 1.1//EN" "http://www.w3.org/Graphics/SVG/1.1/DTD/svg11.dtd"><svg width="100%" height="100%" viewBox="0 0 536 532" version="1.1" xmlns="http://www.w3.org/2000/svg" xmlns:xlink="http://www.w3.org/1999/xlink" xml:space="preserve" style="fill-rule:evenodd;clip-rule:evenodd;stroke-linejoin:round;stroke-miterlimit:1.41421;"><path d="M0.068,0.24l535.612,0l0,530.88l-535.612,0l0,-530.88ZM479.28,283.44l-38.64,25.44c-4.269,-6.72 -9.446,-12.956 -17.76,-17.52c-6.617,-3.159 -13.693,-4.588 -21.6,-2.88c-10.317,2.937 -16.029,9.711 -17.04,20.4c0.264,8.898 4.055,16.896 14.987,23.071c0.237,0.134 0.483,0.253 0.736,0.357c53.898,22.055 73.225,32.023 88.197,59.132c23.142,51.666 -11.288,113.263 -98.64,101.04c-34.074,-6.153 -59.69,-24.734 -70.08,-49.68l40.8,-25.2c5.7,11.245 14.797,21.228 31.68,28.32c26.568,9.024 62.877,-8.493 48.72,-31.68c-7.34,-12.021 -35.883,-21.191 -66.48,-37.92c0,0 0,0 0,0c-39.103,-21.379 -52.617,-60.489 -31.13,-102.628c0.116,-0.227 0.242,-0.45 0.377,-0.666c27.092,-43.312 112.256,-41.041 135.873,10.414ZM292.995,246.312l-50.595,0l0,163.448c0.004,13.931 0.026,34.899 -25.08,37.66c-11.789,1.297 -25.083,-5.93 -37.477,-25.911l-38.494,25.911c5.144,11.74 14.169,23.86 25.773,32.412c17.897,13.189 48.904,16.763 71.787,11.843c30.896,-6.643 55.221,-31.365 54.086,-81.915l0,-163.448Z" style="fill:#5cb857;"/></svg>